<?xml version="1.0" standalone="no"?>
<!DOCTYPE svg PUBLIC "-//W3C//DTD SVG 20010904//EN"
 "http://www.w3.org/TR/2001/REC-SVG-20010904/DTD/svg10.dtd">
<svg version="1.0" xmlns="http://www.w3.org/2000/svg"
 width="1450.000000pt" height="500.000000pt" viewBox="0 0 1450.000000 500.000000"
 preserveAspectRatio="xMidYMid meet">

<g transform="translate(0.000000,500.000000) scale(0.100000,-0.100000)"
fill="#000000" stroke="none">
<path d="M7909 3225 c-61 -33 -60 -20 -57 -740 l3 -657 37 -34 38 -34 1167 2
1168 3 117 550 c64 303 135 634 156 738 l40 187 -1322 0 c-1123 -1 -1325 -3
-1347 -15z m1209 -411 l-3 -49 -50 -12 c-86 -19 -85 -20 -85 42 0 48 3 55 23
60 75 17 103 21 110 15 5 -4 7 -29 5 -56z m-538 -54 l0 -60 50 0 50 0 0 -60 0
-60 -50 0 -50 0 0 -103 c0 -123 9 -142 64 -135 l37 4 -3 -60 c-3 -59 -3 -60
-38 -69 -85 -22 -167 21 -189 99 -6 23 -11 130 -11 256 l0 216 63 15 c34 8 65
15 70 16 4 0 7 -26 7 -59z m-227 -61 l37 -10 0 -69 0 -69 -35 15 c-39 16 -120
23 -132 11 -14 -15 12 -38 71 -62 71 -29 103 -57 117 -106 26 -85 -26 -166
-121 -189 -52 -12 -102 -9 -172 12 l-38 11 0 70 c0 62 2 68 18 62 86 -37 151
-45 170 -22 17 20 2 33 -80 70 -86 40 -108 67 -108 139 0 90 68 147 175 148
33 0 77 -5 98 -11z m483 -4 c5 -13 8 -13 27 0 12 8 36 15 54 15 l33 0 0 -69
c0 -67 0 -68 -25 -63 -14 2 -36 -3 -50 -12 -25 -16 -25 -17 -25 -176 l0 -160
-70 0 -70 0 0 233 c0 129 3 237 7 240 3 4 30 7 60 7 38 0 55 -4 59 -15z m635
-8 c67 -45 99 -117 99 -222 0 -105 -32 -177 -100 -223 -28 -19 -45 -23 -85
-20 -27 3 -58 8 -67 12 -16 7 -18 1 -18 -62 l0 -71 -57 -11 c-32 -7 -63 -15
-70 -17 -10 -4 -13 59 -13 311 l0 316 65 0 c38 0 65 -4 65 -10 0 -6 12 -4 28
4 42 23 113 20 153 -7z m436 -13 c50 -41 82 -119 83 -201 l0 -63 -130 0 c-84
0 -130 -4 -130 -10 0 -6 12 -22 26 -37 23 -23 30 -25 97 -21 40 3 80 8 90 12
15 7 17 2 17 -48 0 -56 -1 -57 -37 -74 -23 -10 -66 -16 -108 -17 -152 -1 -234
98 -223 270 5 77 29 134 75 177 41 39 70 48 140 45 52 -2 68 -8 100 -33z
m-789 -206 l-3 -233 -67 -3 -68 -3 0 236 0 235 70 0 70 0 -2 -232z"/>
<path d="M9312 2568 c-15 -15 -17 -204 -2 -213 23 -14 72 -7 93 13 31 32 36
135 8 180 -17 26 -27 32 -54 32 -18 0 -38 -5 -45 -12z"/>
<path d="M9746 2568 c-29 -41 -21 -48 49 -48 57 0 64 2 58 18 -19 54 -79 70
-107 30z"/>
<path d="M10830 2491 l0 -271 45 0 44 0 3 103 3 102 100 5 c109 5 150 21 189
73 30 41 30 140 -1 183 -40 56 -81 68 -240 72 l-143 4 0 -271z m286 158 c45
-42 23 -119 -39 -134 -12 -3 -52 -5 -87 -3 l-65 3 -3 69 c-4 101 -6 100 89 93
65 -4 85 -10 105 -28z"/>
<path d="M11988 2673 c-3 -55 -4 -58 -30 -61 -24 -3 -28 -8 -28 -37 0 -29 4
-34 28 -37 l27 -3 3 -137 c3 -134 3 -137 29 -157 19 -16 40 -21 84 -21 l59 0
0 40 c0 39 -1 40 -34 40 -51 0 -57 15 -54 131 l3 104 43 3 c41 3 42 4 42 37 0
33 -1 34 -42 37 l-43 3 -3 58 -3 57 -39 0 -39 0 -3 -57z"/>
<path d="M11354 2601 c-27 -12 -46 -30 -57 -54 -24 -51 -22 -57 24 -57 32 0
46 6 61 25 14 19 29 25 57 25 42 0 61 -14 61 -45 0 -18 -11 -23 -80 -37 -44
-9 -93 -26 -110 -38 -62 -44 -57 -145 9 -184 41 -24 115 -25 160 -3 26 13 31
13 31 1 0 -10 12 -14 43 -14 l42 0 -3 162 c-3 124 -7 169 -19 186 -32 51 -142
68 -219 33z m146 -235 c0 -43 -38 -76 -86 -76 -30 0 -64 21 -64 40 0 19 38 52
70 60 71 16 80 13 80 -24z"/>
<path d="M11828 2611 c-15 -3 -37 -14 -48 -23 -26 -23 -30 -22 -30 2 0 17 -7
20 -45 20 l-45 0 0 -195 0 -195 45 0 45 0 0 105 c0 129 14 169 64 190 20 8 45
15 56 15 19 0 21 5 18 42 -3 46 -11 51 -60 39z"/>
<path d="M12357 2600 c-31 -17 -37 -17 -37 -5 0 11 -12 15 -45 15 l-45 0 0
-195 0 -195 44 0 44 0 4 135 c3 119 5 137 23 154 32 31 67 35 98 11 l27 -21 0
-140 0 -139 45 0 45 0 0 158 c0 138 -2 160 -19 186 -11 16 -30 35 -43 42 -34
20 -98 17 -141 -6z"/>
<path d="M12735 2607 c-42 -19 -92 -79 -104 -124 -45 -161 72 -298 224 -264
54 13 82 31 110 74 20 32 21 30 -22 45 -30 10 -35 8 -62 -19 -40 -39 -89 -40
-130 -1 -17 15 -33 39 -37 55 l-6 27 136 0 136 0 0 43 c-1 56 -30 119 -71 147
-40 29 -129 37 -174 17z m105 -67 c16 0 50 -43 50 -62 0 -16 -10 -18 -85 -18
-88 0 -94 4 -74 41 12 23 67 51 87 44 8 -3 18 -5 22 -5z"/>
<path d="M13205 2605 c-22 -8 -41 -19 -43 -25 -6 -18 -22 -11 -22 10 0 17 -7
20 -40 20 l-40 0 0 -195 0 -195 40 0 40 0 0 98 c0 157 25 205 106 206 l35 1
-3 45 c-3 52 -13 56 -73 35z"/>
</g>
</svg>
