<?xml version="1.0" standalone="no"?>
<!DOCTYPE svg PUBLIC "-//W3C//DTD SVG 20010904//EN"
 "http://www.w3.org/TR/2001/REC-SVG-20010904/DTD/svg10.dtd">
<svg version="1.0" xmlns="http://www.w3.org/2000/svg"
 width="200.000000pt" height="200.000000pt" viewBox="0 0 200.000000 200.000000"
 preserveAspectRatio="xMidYMid meet">

<g transform="translate(0.000000,200.000000) scale(0.100000,-0.100000)"
fill="#000000" stroke="none">
<path d="M1620 1730 c-25 -25 -26 -62 -2 -83 39 -35 102 -9 102 41 0 28 -34
62 -60 62 -11 0 -29 -9 -40 -20z"/>
<path d="M220 1521 c0 -28 7 -48 20 -61 18 -18 33 -20 183 -20 149 0 167 -2
207 -22 48 -25 90 -89 90 -138 0 -49 -42 -113 -90 -137 -39 -20 -59 -23 -177
-23 -176 0 -173 3 -173 -158 0 -103 3 -121 18 -135 23 -21 51 -22 80 -1 20 13
22 24 22 94 l0 78 118 4 c102 3 123 7 167 30 101 53 150 134 149 248 0 118
-48 194 -158 253 -38 20 -57 22 -248 25 l-208 3 0 -40z"/>
<path d="M1125 1551 c-135 -33 -224 -156 -213 -295 6 -74 26 -117 81 -174 56
-58 124 -82 231 -82 91 0 116 13 116 62 0 43 -26 56 -122 60 -93 3 -120 15
-162 72 -31 41 -29 130 3 175 40 56 87 71 229 71 l122 0 0 -203 c0 -185 2
-205 18 -220 24 -22 65 -21 85 1 15 16 17 51 17 280 l0 262 -187 -1 c-104 -1
-201 -4 -218 -8z"/>
<path d="M1600 1297 c0 -243 1 -265 18 -280 24 -22 65 -21 85 1 15 16 17 51
17 280 l0 262 -60 0 -60 0 0 -263z"/>
<path d="M910 876 c-9 -12 -7 -17 9 -28 27 -17 27 -28 -1 -29 -19 -1 -20 -2
-4 -6 10 -3 23 0 30 7 8 8 5 15 -12 28 -18 14 -20 20 -10 30 6 6 9 12 6 12 -3
0 -11 -6 -18 -14z"/>
<path d="M1053 883 c-18 -7 -16 -30 2 -37 20 -7 19 -24 -2 -29 -14 -4 -13 -5
4 -6 32 -2 39 19 14 38 -17 13 -19 19 -9 29 13 13 11 14 -9 5z"/>
<path d="M1680 876 c-9 -12 -7 -17 9 -28 27 -17 27 -28 -1 -29 -19 -1 -20 -2
-4 -6 10 -3 23 0 30 7 8 8 5 15 -12 28 -18 14 -20 20 -10 30 6 6 9 12 6 12 -3
0 -11 -6 -18 -14z"/>
<path d="M1011 853 c-1 -36 -26 -46 -34 -15 -4 16 -5 16 -6 -1 -1 -21 26 -34
40 -20 6 6 9 23 6 39 -4 29 -4 28 -6 -3z"/>
<path d="M1103 864 c-8 -22 9 -48 33 -51 15 -2 14 -1 -3 7 -25 10 -31 45 -10
53 9 4 9 6 -1 6 -7 1 -15 -6 -19 -15z"/>
<path d="M1214 872 c5 -9 1 -15 -12 -19 -11 -3 -23 -12 -27 -21 -5 -14 -4 -14
6 -5 10 10 16 10 28 -1 14 -13 16 -11 16 14 0 16 -4 32 -9 37 -5 5 -6 3 -2 -5z"/>
<path d="M1253 845 c0 -22 2 -30 4 -17 2 12 2 30 0 40 -3 9 -5 -1 -4 -23z"/>
<path d="M1282 845 c0 -22 2 -33 5 -24 2 10 13 19 24 22 19 5 27 37 9 37 -5 0
-7 -7 -4 -15 4 -9 0 -15 -9 -15 -9 0 -18 8 -20 18 -3 9 -5 -1 -5 -23z"/>
<path d="M1354 866 c-11 -28 1 -51 26 -53 24 -1 24 -1 1 4 -19 4 -22 10 -19
34 5 31 1 38 -8 15z"/>
<path d="M1423 845 c0 -22 2 -30 4 -17 2 12 2 30 0 40 -3 9 -5 -1 -4 -23z"/>
<path d="M1452 848 c2 -28 7 -33 28 -33 21 0 26 5 28 33 2 17 -1 32 -6 32 -5
0 -7 -13 -4 -30 4 -26 1 -30 -18 -30 -19 0 -22 4 -18 30 3 17 1 30 -4 30 -5 0
-8 -15 -6 -32z"/>
<path d="M1531 843 c1 -37 2 -37 8 -8 l6 29 22 -29 22 -30 0 40 c-1 33 -2 36
-8 15 l-7 -25 -15 23 c-20 32 -29 27 -28 -15z"/>
<path d="M1612 848 c-2 -35 0 -38 26 -37 22 1 23 2 5 6 -16 3 -23 13 -26 36
-4 31 -4 31 -5 -5z"/>
<path d="M284 617 c-2 -7 -3 -85 -2 -172 l3 -160 290 0 290 0 31 145 c18 80
35 157 38 173 l6 27 -326 0 c-256 0 -326 -3 -330 -13z m302 -91 c-6 -24 -5
-25 39 -21 36 4 47 1 57 -14 12 -19 12 -19 36 0 14 10 29 19 35 19 20 0 47
-33 47 -57 0 -19 -5 -23 -32 -24 -20 -1 -25 -3 -13 -6 45 -10 48 -12 35 -28
-16 -20 -49 -19 -72 2 -17 15 -19 15 -36 0 -10 -10 -26 -17 -35 -17 -9 0 -17
-7 -17 -15 0 -8 -9 -15 -20 -15 -13 0 -20 7 -20 19 0 12 -7 18 -17 17 -14 -1
-19 8 -21 42 -4 55 -26 51 -30 -5 -3 -40 -4 -41 -42 -41 -22 0 -44 5 -50 13
-10 12 -14 12 -27 -1 -20 -20 -67 -14 -71 9 -3 12 3 17 19 17 l23 0 -22 16
c-29 20 -28 52 2 66 31 14 56 4 56 -21 0 -15 -5 -18 -22 -14 -21 4 -21 4 2 -9
25 -14 25 -13 28 29 3 35 7 43 23 43 10 0 19 -6 19 -12 0 -9 17 -13 49 -14 39
-1 48 2 44 13 -3 8 0 19 8 24 24 15 31 10 25 -15z"/>
<path d="M460 445 c0 -14 5 -25 10 -25 6 0 10 11 10 25 0 14 -4 25 -10 25 -5
0 -10 -11 -10 -25z"/>
<path d="M630 445 c0 -17 5 -25 13 -22 6 2 12 12 12 22 0 10 -6 20 -12 23 -8
2 -13 -6 -13 -23z"/>
<path d="M1007 513 c-4 -3 -7 -33 -7 -65 0 -45 3 -58 15 -58 9 0 15 9 15 24 0
21 6 25 33 28 63 6 42 78 -23 78 -15 0 -30 -3 -33 -7z m57 -19 c25 -10 19 -34
-9 -34 -18 0 -25 5 -25 20 0 21 8 24 34 14z"/>
<path d="M1290 496 c0 -8 -6 -17 -12 -20 -10 -5 -10 -7 0 -12 6 -3 12 -21 12
-39 0 -32 23 -55 35 -35 4 6 1 10 -4 10 -15 0 -14 57 2 64 10 5 10 7 0 12 -7
3 -13 12 -13 20 0 8 -4 14 -10 14 -5 0 -10 -6 -10 -14z"/>
<path d="M1127 474 c-15 -16 -6 -24 19 -18 19 5 25 4 20 -5 -4 -6 -16 -11 -27
-11 -11 0 -22 -7 -26 -16 -9 -24 18 -43 50 -37 26 5 28 9 25 47 -3 36 -6 41
-28 44 -14 2 -29 0 -33 -4z m43 -53 c0 -14 -18 -23 -30 -16 -6 4 -8 11 -5 16
8 12 35 12 35 0z"/>
<path d="M1210 434 c0 -24 5 -44 10 -44 6 0 10 14 10 30 0 18 6 33 15 36 23 9
18 22 -10 22 -23 0 -25 -4 -25 -44z"/>
<path d="M1350 435 c0 -25 5 -45 10 -45 6 0 10 16 10 36 0 28 3 35 18 32 11
-2 18 -14 20 -36 4 -40 22 -43 22 -3 0 49 -9 61 -46 61 -34 0 -34 -1 -34 -45z"/>
<path d="M1450 461 c-16 -31 -12 -49 14 -66 19 -13 29 -14 45 -5 28 15 26 24
-3 16 -15 -4 -28 0 -36 9 -11 13 -7 15 24 15 23 0 36 5 36 13 0 37 -62 51 -80
18z m50 -11 c0 -5 -7 -10 -15 -10 -8 0 -15 5 -15 10 0 6 7 10 15 10 8 0 15 -4
15 -10z"/>
<path d="M1550 434 c0 -24 5 -44 10 -44 6 0 10 14 10 30 0 18 6 33 15 36 23 9
18 22 -10 22 -23 0 -25 -4 -25 -44z"/>
</g>
</svg>
